{
	"asset":{
		"generator":"Khronos glTF Blender I/O v3.6.27",
		"version":"2.0"
	},
	"scene":0,
	"scenes":[
		{
			"name":"Scene",
			"nodes":[
				0
			]
		}
	],
	"nodes":[
		{
			"mesh":0,
			"name":"Cylinder.002",
			"rotation":[
				0,
				0,
				-0.7071068286895752,
				0.7071068286895752
			],
			"scale":[
				-0.24124689400196075,
				-0.3471643328666687,
				-0.24124689400196075
			],
			"translation":[
				-1.1271026134490967,
				-0.6011581420898438,
				-0.6083016395568848
			]
		}
	],
	"materials":[
		{
			"doubleSided":true,
			"name":"Material.005",
			"pbrMetallicRoughness":{
				"baseColorFactor":[
					0.800000011920929,
					0.800000011920929,
					0.800000011920929,
					1
				],
				"metallicFactor":0,
				"roughnessFactor":0.5
			}
		},
		{
			"doubleSided":true,
			"name":"Material.006",
			"pbrMetallicRoughness":{
				"baseColorFactor":[
					0.226581871509552,
					0.226581871509552,
					0.226581871509552,
					1
				],
				"metallicFactor":0,
				"roughnessFactor":0.5
			}
		},
		{
			"doubleSided":true,
			"name":"Material.007",
			"pbrMetallicRoughness":{
				"baseColorFactor":[
					0.8000000715255737,
					0.6906102895736694,
					0.028796875849366188,
					1
				],
				"metallicFactor":0,
				"roughnessFactor":0.5
			}
		},
		{
			"doubleSided":true,
			"name":"Material.008",
			"pbrMetallicRoughness":{
				"baseColorFactor":[
					0.8000000715255737,
					0.06015307828783989,
					0.007939416915178299,
					1
				],
				"metallicFactor":0,
				"roughnessFactor":0.5
			}
		},
		{
			"doubleSided":true,
			"name":"Material.009",
			"pbrMetallicRoughness":{
				"baseColorFactor":[
					0.18947890400886536,
					0.17821195721626282,
					0.1901761144399643,
					1
				],
				"metallicFactor":0,
				"roughnessFactor":0.5
			}
		},
		{
			"doubleSided":true,
			"name":"Material.010",
			"pbrMetallicRoughness":{
				"baseColorFactor":[
					0.8000000715255737,
					0.44977396726608276,
					0.007987720891833305,
					1
				],
				"metallicFactor":0,
				"roughnessFactor":0.5
			}
		},
		{
			"doubleSided":true,
			"name":"Material.011",
			"pbrMetallicRoughness":{
				"baseColorFactor":[
					0.8000000715255737,
					0.005995742045342922,
					0.002747548744082451,
					1
				],
				"metallicFactor":0,
				"roughnessFactor":0.5
			}
		},
		{
			"doubleSided":true,
			"name":"Material.012",
			"pbrMetallicRoughness":{
				"baseColorFactor":[
					0.7853676080703735,
					0.8000000715255737,
					0.7257896661758423,
					1
				],
				"metallicFactor":0,
				"roughnessFactor":0.5
			}
		},
		{
			"doubleSided":true,
			"name":"Material.013",
			"pbrMetallicRoughness":{
				"baseColorFactor":[
					0.04368077963590622,
					0.13866019248962402,
					0.8000000715255737,
					1
				],
				"metallicFactor":0,
				"roughnessFactor":0.5
			}
		},
		{
			"doubleSided":true,
			"name":"Material.014",
			"pbrMetallicRoughness":{
				"baseColorFactor":[
					0.2745964825153351,
					0.31618732213974,
					0.8000000715255737,
					1
				],
				"metallicFactor":0,
				"roughnessFactor":0.5
			}
		},
		{
			"doubleSided":true,
			"name":"Material",
			"pbrMetallicRoughness":{
				"baseColorFactor":[
					0.7879853844642639,
					0.7760765552520752,
					0.8000000715255737,
					1
				],
				"metallicFactor":0,
				"roughnessFactor":0.5
			}
		},
		{
			"doubleSided":true,
			"name":"Material.001",
			"pbrMetallicRoughness":{
				"baseColorFactor":[
					0.8000000715255737,
					0.11292561143636703,
					0.011871526017785072,
					1
				],
				"metallicFactor":0,
				"roughnessFactor":0.5
			}
		},
		{
			"doubleSided":true,
			"name":"Material.002",
			"pbrMetallicRoughness":{
				"baseColorFactor":[
					0.8000000715255737,
					0.7408281564712524,
					0,
					1
				],
				"metallicFactor":0,
				"roughnessFactor":0.5
			}
		},
		{
			"doubleSided":true,
			"name":"Material.003",
			"pbrMetallicRoughness":{
				"baseColorFactor":[
					0,
					0,
					0,
					1
				],
				"metallicFactor":0,
				"roughnessFactor":0.5
			}
		},
		{
			"doubleSided":true,
			"name":"Material.004",
			"pbrMetallicRoughness":{
				"baseColorFactor":[
					0.2627118229866028,
					0.31727370619773865,
					0.3263736069202423,
					1
				],
				"metallicFactor":0,
				"roughnessFactor":0.5
			}
		}
	],
	"meshes":[
		{
			"name":"Cylinder.000",
			"primitives":[
				{
					"attributes":{
						"POSITION":0,
						"NORMAL":1
					},
					"indices":2,
					"material":0
				},
				{
					"attributes":{
						"POSITION":3,
						"NORMAL":4
					},
					"indices":5,
					"material":1
				},
				{
					"attributes":{
						"POSITION":6,
						"NORMAL":7
					},
					"indices":8,
					"material":2
				},
				{
					"attributes":{
						"POSITION":9,
						"NORMAL":10
					},
					"indices":11,
					"material":3
				},
				{
					"attributes":{
						"POSITION":12,
						"NORMAL":13
					},
					"indices":14,
					"material":4
				},
				{
					"attributes":{
						"POSITION":15,
						"NORMAL":16
					},
					"indices":17,
					"material":5
				},
				{
					"attributes":{
						"POSITION":18,
						"NORMAL":19
					},
					"indices":20,
					"material":6
				},
				{
					"attributes":{
						"POSITION":21,
						"NORMAL":22
					},
					"indices":23,
					"material":7
				},
				{
					"attributes":{
						"POSITION":24,
						"NORMAL":25
					},
					"indices":26,
					"material":8
				},
				{
					"attributes":{
						"POSITION":27,
						"NORMAL":28
					},
					"indices":29,
					"material":9
				},
				{
					"attributes":{
						"POSITION":30,
						"NORMAL":31
					},
					"indices":32,
					"material":10
				},
				{
					"attributes":{
						"POSITION":33,
						"NORMAL":34
					},
					"indices":35,
					"material":11
				},
				{
					"attributes":{
						"POSITION":36,
						"NORMAL":37
					},
					"indices":38,
					"material":12
				},
				{
					"attributes":{
						"POSITION":39,
						"NORMAL":40
					},
					"indices":41,
					"material":13
				},
				{
					"attributes":{
						"POSITION":42,
						"NORMAL":43
					},
					"indices":44,
					"material":14
				}
			]
		}
	],
	"accessors":[
		{
			"bufferView":0,
			"componentType":5126,
			"count":6352,
			"max":[
				5.031578063964844,
				3.2204055786132812,
				6.599853992462158
			],
			"min":[
				-1.4970134496688843,
				-7.741901397705078,
				-11.71457290649414
			],
			"type":"VEC3"
		},
		{
			"bufferView":1,
			"componentType":5126,
			"count":6352,
			"type":"VEC3"
		},
		{
			"bufferView":2,
			"componentType":5123,
			"count":11472,
			"type":"SCALAR"
		},
		{
			"bufferView":3,
			"componentType":5126,
			"count":13592,
			"max":[
				5.056325435638428,
				4.014522552490234,
				6.599853992462158
			],
			"min":[
				-1.521761178970337,
				-7.741901397705078,
				-11.71457290649414
			],
			"type":"VEC3"
		},
		{
			"bufferView":4,
			"componentType":5126,
			"count":13592,
			"type":"VEC3"
		},
		{
			"bufferView":5,
			"componentType":5123,
			"count":21132,
			"type":"SCALAR"
		},
		{
			"bufferView":6,
			"componentType":5126,
			"count":768,
			"max":[
				5.205617427825928,
				3.0797338485717773,
				6.661275863647461
			],
			"min":[
				-1.6710541248321533,
				-1.7007012367248535,
				-11.775995254516602
			],
			"type":"VEC3"
		},
		{
			"bufferView":7,
			"componentType":5126,
			"count":768,
			"type":"VEC3"
		},
		{
			"bufferView":8,
			"componentType":5123,
			"count":1536,
			"type":"SCALAR"
		},
		{
			"bufferView":9,
			"componentType":5126,
			"count":920,
			"max":[
				5.205617427825928,
				2.141427755355835,
				6.661275863647461
			],
			"min":[
				-1.6710541248321533,
				-1.7007012367248535,
				-11.775995254516602
			],
			"type":"VEC3"
		},
		{
			"bufferView":10,
			"componentType":5126,
			"count":920,
			"type":"VEC3"
		},
		{
			"bufferView":11,
			"componentType":5123,
			"count":1956,
			"type":"SCALAR"
		},
		{
			"bufferView":12,
			"componentType":5126,
			"count":20952,
			"max":[
				5.395481586456299,
				3.8923230171203613,
				6.857796669006348
			],
			"min":[
				-1.9014605283737183,
				-7.83909797668457,
				-11.81052303314209
			],
			"type":"VEC3"
		},
		{
			"bufferView":13,
			"componentType":5126,
			"count":20952,
			"type":"VEC3"
		},
		{
			"bufferView":14,
			"componentType":5123,
			"count":35268,
			"type":"SCALAR"
		},
		{
			"bufferView":15,
			"componentType":5126,
			"count":264,
			"max":[
				4.387964248657227,
				2.9575343132019043,
				6.734615325927734
			],
			"min":[
				-0.8939427733421326,
				-1.2719988822937012,
				-11.687341690063477
			],
			"type":"VEC3"
		},
		{
			"bufferView":16,
			"componentType":5126,
			"count":264,
			"type":"VEC3"
		},
		{
			"bufferView":17,
			"componentType":5123,
			"count":396,
			"type":"SCALAR"
		},
		{
			"bufferView":18,
			"componentType":5126,
			"count":284,
			"max":[
				4.523296356201172,
				3.8923230171203613,
				6.725246429443359
			],
			"min":[
				-1.029274582862854,
				-1.2719988822937012,
				-11.677970886230469
			],
			"type":"VEC3"
		},
		{
			"bufferView":19,
			"componentType":5126,
			"count":284,
			"type":"VEC3"
		},
		{
			"bufferView":20,
			"componentType":5123,
			"count":432,
			"type":"SCALAR"
		},
		{
			"bufferView":21,
			"componentType":5126,
			"count":32,
			"max":[
				2.981567144393921,
				-2.1342098712921143,
				-1.846808671951294
			],
			"min":[
				2.9815666675567627,
				-3.0160365104675293,
				-3.1157939434051514
			],
			"type":"VEC3"
		},
		{
			"bufferView":22,
			"componentType":5126,
			"count":32,
			"type":"VEC3"
		},
		{
			"bufferView":23,
			"componentType":5123,
			"count":90,
			"type":"SCALAR"
		},
		{
			"bufferView":24,
			"componentType":5126,
			"count":672,
			"max":[
				4.250552177429199,
				-2.134209632873535,
				-1.846808671951294
			],
			"min":[
				2.9815666675567627,
				-3.0160365104675293,
				-3.1157939434051514
			],
			"type":"VEC3"
		},
		{
			"bufferView":25,
			"componentType":5126,
			"count":672,
			"type":"VEC3"
		},
		{
			"bufferView":26,
			"componentType":5123,
			"count":1050,
			"type":"SCALAR"
		},
		{
			"bufferView":27,
			"componentType":5126,
			"count":256,
			"max":[
				4.17886209487915,
				-2.1842687129974365,
				-1.9188458919525146
			],
			"min":[
				3.9830002784729004,
				-2.965977191925049,
				-3.0437567234039307
			],
			"type":"VEC3"
		},
		{
			"bufferView":28,
			"componentType":5126,
			"count":256,
			"type":"VEC3"
		},
		{
			"bufferView":29,
			"componentType":5123,
			"count":384,
			"type":"SCALAR"
		},
		{
			"bufferView":30,
			"componentType":5126,
			"count":118,
			"max":[
				3.859121799468994,
				0.45850083231925964,
				-1.0613045692443848
			],
			"min":[
				-0.08456750959157944,
				-13.044078826904297,
				-3.8991923332214355
			],
			"type":"VEC3"
		},
		{
			"bufferView":31,
			"componentType":5126,
			"count":118,
			"type":"VEC3"
		},
		{
			"bufferView":32,
			"componentType":5123,
			"count":180,
			"type":"SCALAR"
		},
		{
			"bufferView":33,
			"componentType":5126,
			"count":1194,
			"max":[
				3.856893301010132,
				2.300220012664795,
				-0.7394194602966309
			],
			"min":[
				-0.08456750959157944,
				-13.723756790161133,
				-4.221079349517822
			],
			"type":"VEC3"
		},
		{
			"bufferView":34,
			"componentType":5126,
			"count":1194,
			"type":"VEC3"
		},
		{
			"bufferView":35,
			"componentType":5123,
			"count":1776,
			"type":"SCALAR"
		},
		{
			"bufferView":36,
			"componentType":5126,
			"count":44,
			"max":[
				3.286019802093506,
				1.2190967798233032,
				-1.622821569442749
			],
			"min":[
				2.4745988845825195,
				-11.251054763793945,
				-3.3376777172088623
			],
			"type":"VEC3"
		},
		{
			"bufferView":37,
			"componentType":5126,
			"count":44,
			"type":"VEC3"
		},
		{
			"bufferView":38,
			"componentType":5123,
			"count":72,
			"type":"SCALAR"
		},
		{
			"bufferView":39,
			"componentType":5126,
			"count":74,
			"max":[
				3.7324740886688232,
				2.1964166164398193,
				-1.2822192907333374
			],
			"min":[
				2.324991464614868,
				-6.3683762550354,
				-3.5856387615203857
			],
			"type":"VEC3"
		},
		{
			"bufferView":40,
			"componentType":5126,
			"count":74,
			"type":"VEC3"
		},
		{
			"bufferView":41,
			"componentType":5123,
			"count":114,
			"type":"SCALAR"
		},
		{
			"bufferView":42,
			"componentType":5126,
			"count":210,
			"max":[
				3.859121799468994,
				2.1337690353393555,
				-1.1009269952774048
			],
			"min":[
				0.7694721817970276,
				-11.874905586242676,
				-3.8595688343048096
			],
			"type":"VEC3"
		},
		{
			"bufferView":43,
			"componentType":5126,
			"count":210,
			"type":"VEC3"
		},
		{
			"bufferView":44,
			"componentType":5123,
			"count":348,
			"type":"SCALAR"
		}
	],
	"bufferViews":[
		{
			"buffer":0,
			"byteLength":76224,
			"byteOffset":0,
			"target":34962
		},
		{
			"buffer":0,
			"byteLength":76224,
			"byteOffset":76224,
			"target":34962
		},
		{
			"buffer":0,
			"byteLength":22944,
			"byteOffset":152448,
			"target":34963
		},
		{
			"buffer":0,
			"byteLength":163104,
			"byteOffset":175392,
			"target":34962
		},
		{
			"buffer":0,
			"byteLength":163104,
			"byteOffset":338496,
			"target":34962
		},
		{
			"buffer":0,
			"byteLength":42264,
			"byteOffset":501600,
			"target":34963
		},
		{
			"buffer":0,
			"byteLength":9216,
			"byteOffset":543864,
			"target":34962
		},
		{
			"buffer":0,
			"byteLength":9216,
			"byteOffset":553080,
			"target":34962
		},
		{
			"buffer":0,
			"byteLength":3072,
			"byteOffset":562296,
			"target":34963
		},
		{
			"buffer":0,
			"byteLength":11040,
			"byteOffset":565368,
			"target":34962
		},
		{
			"buffer":0,
			"byteLength":11040,
			"byteOffset":576408,
			"target":34962
		},
		{
			"buffer":0,
			"byteLength":3912,
			"byteOffset":587448,
			"target":34963
		},
		{
			"buffer":0,
			"byteLength":251424,
			"byteOffset":591360,
			"target":34962
		},
		{
			"buffer":0,
			"byteLength":251424,
			"byteOffset":842784,
			"target":34962
		},
		{
			"buffer":0,
			"byteLength":70536,
			"byteOffset":1094208,
			"target":34963
		},
		{
			"buffer":0,
			"byteLength":3168,
			"byteOffset":1164744,
			"target":34962
		},
		{
			"buffer":0,
			"byteLength":3168,
			"byteOffset":1167912,
			"target":34962
		},
		{
			"buffer":0,
			"byteLength":792,
			"byteOffset":1171080,
			"target":34963
		},
		{
			"buffer":0,
			"byteLength":3408,
			"byteOffset":1171872,
			"target":34962
		},
		{
			"buffer":0,
			"byteLength":3408,
			"byteOffset":1175280,
			"target":34962
		},
		{
			"buffer":0,
			"byteLength":864,
			"byteOffset":1178688,
			"target":34963
		},
		{
			"buffer":0,
			"byteLength":384,
			"byteOffset":1179552,
			"target":34962
		},
		{
			"buffer":0,
			"byteLength":384,
			"byteOffset":1179936,
			"target":34962
		},
		{
			"buffer":0,
			"byteLength":180,
			"byteOffset":1180320,
			"target":34963
		},
		{
			"buffer":0,
			"byteLength":8064,
			"byteOffset":1180500,
			"target":34962
		},
		{
			"buffer":0,
			"byteLength":8064,
			"byteOffset":1188564,
			"target":34962
		},
		{
			"buffer":0,
			"byteLength":2100,
			"byteOffset":1196628,
			"target":34963
		},
		{
			"buffer":0,
			"byteLength":3072,
			"byteOffset":1198728,
			"target":34962
		},
		{
			"buffer":0,
			"byteLength":3072,
			"byteOffset":1201800,
			"target":34962
		},
		{
			"buffer":0,
			"byteLength":768,
			"byteOffset":1204872,
			"target":34963
		},
		{
			"buffer":0,
			"byteLength":1416,
			"byteOffset":1205640,
			"target":34962
		},
		{
			"buffer":0,
			"byteLength":1416,
			"byteOffset":1207056,
			"target":34962
		},
		{
			"buffer":0,
			"byteLength":360,
			"byteOffset":1208472,
			"target":34963
		},
		{
			"buffer":0,
			"byteLength":14328,
			"byteOffset":1208832,
			"target":34962
		},
		{
			"buffer":0,
			"byteLength":14328,
			"byteOffset":1223160,
			"target":34962
		},
		{
			"buffer":0,
			"byteLength":3552,
			"byteOffset":1237488,
			"target":34963
		},
		{
			"buffer":0,
			"byteLength":528,
			"byteOffset":1241040,
			"target":34962
		},
		{
			"buffer":0,
			"byteLength":528,
			"byteOffset":1241568,
			"target":34962
		},
		{
			"buffer":0,
			"byteLength":144,
			"byteOffset":1242096,
			"target":34963
		},
		{
			"buffer":0,
			"byteLength":888,
			"byteOffset":1242240,
			"target":34962
		},
		{
			"buffer":0,
			"byteLength":888,
			"byteOffset":1243128,
			"target":34962
		},
		{
			"buffer":0,
			"byteLength":228,
			"byteOffset":1244016,
			"target":34963
		},
		{
			"buffer":0,
			"byteLength":2520,
			"byteOffset":1244244,
			"target":34962
		},
		{
			"buffer":0,
			"byteLength":2520,
			"byteOffset":1246764,
			"target":34962
		},
		{
			"buffer":0,
			"byteLength":696,
			"byteOffset":1249284,
			"target":34963
		}
	],
	"buffers":[
		{
			"byteLength":1249980,
			"uri":"data:application/octet-stream;base64,"
		}
	]
}
